<svg width="754" height="262" viewBox="0 0 754 262" fill="none" xmlns="http://www.w3.org/2000/svg">
<path d="M101.663 193.037L99.7678 198.239L105.779 200.422L107.674 195.22L101.663 193.037Z" fill="#594791"/>
<path d="M59.3662 122.488L57.5327 127.52L63.544 129.704L65.3775 124.671L59.3662 122.488Z" fill="#594791"/>
<path d="M54.2634 115.406L52.4299 120.438L59.1965 122.896L61.0301 117.864L54.2634 115.406Z" fill="#594791"/>
<path d="M28.9961 71.2539L26.9888 76.7628L32.846 78.8903L34.8533 73.3815L28.9961 71.2539Z" fill="#594791"/>
<path d="M24.4341 63.7148L22.4268 69.2241L29.255 71.7035L31.2623 66.1947L24.4341 63.7148Z" fill="#594791"/>
<path d="M20.7964 56.8633L18.7891 62.3723L24.8775 64.5835L26.8848 59.0744L20.7964 56.8633Z" fill="#594791"/>
<path d="M15.6399 49.8789L13.8232 54.8647L20.636 57.3391L22.4527 52.3532L15.6399 49.8789Z" fill="#594791"/>
<path d="M6.62257 36.4414L5.11987 40.5655L12.8113 43.3589L14.3139 39.2347L6.62257 36.4414Z" fill="#594791"/>
<path d="M8.62266 13.4531L0.991455 34.3968L7.31103 36.6919L14.9422 15.7482L8.62266 13.4531Z" fill="#594791"/>
<path d="M16.1267 10.3496L14.2539 15.4893L20.5736 17.7844L22.4463 12.6447L16.1267 10.3496Z" fill="#594791"/>
<path d="M32.4509 4.87695L30.5781 10.0167L36.8977 12.3118L38.7705 7.17208L32.4509 4.87695Z" fill="#594791"/>
<path d="M62.8884 16.3008L61.0156 21.4405L67.104 23.6517L68.9769 18.5119L62.8884 16.3008Z" fill="#594791"/>
<path d="M67.166 23.5352L65.4727 28.1824L71.5613 30.3937L73.2542 25.7463L67.166 23.5352Z" fill="#594791"/>
<path d="M71.5736 30.3906L69.5947 35.8227L75.6831 38.0339L77.6619 32.6018L71.5736 30.3906Z" fill="#594791"/>
<path d="M75.4398 37.9531L73.7407 42.6158L80.1686 44.9502L81.8677 40.2875L75.4398 37.9531Z" fill="#594791"/>
<path d="M109.762 95.0625L107.968 99.9863L114.642 102.41L116.436 97.4863L109.762 95.0625Z" fill="#594791"/>
<path d="M114.644 102.41L112.85 107.335L118.322 109.322L120.116 104.397L114.644 102.41Z" fill="#594791"/>
<path d="M118.318 109.336L116.523 114.26L122.503 116.432L124.298 111.507L118.318 109.336Z" fill="#594791"/>
<path d="M122.294 116.354L120.349 121.693L127.115 124.15L129.061 118.811L122.294 116.354Z" fill="#594791"/>
<path d="M126.876 123.703L125.104 128.566L130.993 130.704L132.765 125.842L126.876 123.703Z" fill="#594791"/>
<path d="M130.973 130.703L129.201 135.566L135.737 137.939L137.508 133.076L130.973 130.703Z" fill="#594791"/>
<path d="M135.869 137.602L133.856 143.126L139.39 145.136L141.402 139.611L135.869 137.602Z" fill="#594791"/>
<path d="M139.559 144.676L137.547 150.2L144.02 152.552L146.033 147.027L139.559 144.676Z" fill="#594791"/>
<path d="M144.31 151.781L142.297 157.306L148.771 159.657L150.784 154.132L144.31 151.781Z" fill="#594791"/>
<path d="M148.381 159.113L146.586 164.037L153.06 166.388L154.854 161.464L148.381 159.113Z" fill="#594791"/>
<path d="M153.14 166.129L151.06 171.837L156.778 173.915L158.858 168.206L153.14 166.129Z" fill="#594791"/>
<path d="M156.426 173.783L154.789 178.276L161.663 180.773L163.3 176.28L156.426 173.783Z" fill="#594791"/>
<path d="M161.607 180.746L159.572 186.332L165.167 188.365L167.202 182.778L161.607 180.746Z" fill="#594791"/>
<path d="M165.199 188L161.56 197.987L168.296 200.433L171.935 190.446L165.199 188Z" fill="#594791"/>
<path d="M168.291 200.465L164.652 210.452L171.388 212.898L175.026 202.911L168.291 200.465Z" fill="#594791"/>
<path d="M170.455 212.545L165.128 227.163L171.864 229.61L177.191 214.991L170.455 212.545Z" fill="#594791"/>
<path d="M171.621 229.52L168.083 239.23L173.632 241.245L177.17 231.535L171.621 229.52Z" fill="#594791"/>
<path d="M173.636 241.25L168.062 256.546L174.598 258.92L180.171 243.624L173.636 241.25Z" fill="#594791"/>
<path d="M157.956 246.727L155.971 252.174L169.581 257.117L171.566 251.67L157.956 246.727Z" fill="#594791"/>
<path d="M147.46 237.316L145.475 242.764L157.791 247.237L159.776 241.789L147.46 237.316Z" fill="#594791"/>
<path d="M120.614 216.637L118.629 222.085L131.438 226.736L133.423 221.289L120.614 216.637Z" fill="#594791"/>
<path d="M119.007 182.561L115.475 192.256L121.887 194.584L125.419 184.89L119.007 182.561Z" fill="#9C87B9"/>
<path d="M161.576 236.887L157.982 246.751L170.02 251.123L173.614 241.259L161.576 236.887Z" fill="#9C87B9"/>
<path d="M152.796 222.691L147.458 237.341L160.128 241.942L165.466 227.293L152.796 222.691Z" fill="#9C87B9"/>
<path d="M165.461 227.309L161.878 237.142L168.028 239.376L171.611 229.542L165.461 227.309Z" fill="#9C87B9"/>
<path d="M145.501 225.531L143.556 230.871L150.045 233.227L151.991 227.888L145.501 225.531Z" fill="#9C87B9"/>
<path d="M160.42 219.879L158.625 224.803L165.115 227.16L166.909 222.236L160.42 219.879Z" fill="#9C87B9"/>
<path d="M26.9098 59.043L25.1155 63.9673L31.6046 66.324L33.3989 61.3997L26.9098 59.043Z" fill="#9C87B9"/>
<path d="M43.9834 48.2891L42.1611 53.2903L48.6503 55.647L50.4726 50.6458L43.9834 48.2891Z" fill="#9C87B9"/>
<path d="M11.3134 25.4238L7.22021 36.6574L13.7094 39.0141L17.8025 27.7805L11.3134 25.4238Z" fill="#9C87B9"/>
<path d="M19.1024 22.6484L15.4971 32.5432L21.2155 34.62L24.8208 24.7252L19.1024 22.6484Z" fill="#9C87B9"/>
<path d="M26.5433 19.9551L22.938 29.8498L29.6275 32.2793L33.2329 22.3845L26.5433 19.9551Z" fill="#9C87B9"/>
<path d="M34.8265 17.1641L31.2212 27.0588L36.9242 29.1301L40.5296 19.2353L34.8265 17.1641Z" fill="#9C87B9"/>
<path d="M42.2518 14.4902L38.6465 24.385L45.1973 26.7641L48.8026 16.8694L42.2518 14.4902Z" fill="#9C87B9"/>
<path d="M50.7142 11.6289L47.1089 21.5237L53.6597 23.9028L57.265 14.008L50.7142 11.6289Z" fill="#9C87B9"/>
<path d="M56.4296 13.7148L54.4727 19.0854L61.0235 21.4646L62.9803 16.094L56.4296 13.7148Z" fill="#9C87B9"/>
<path d="M14.8672 15.6836L11.3179 25.4244L17.283 27.5909L20.8322 17.85L14.8672 15.6836Z" fill="#B3A7CE"/>
<path d="M22.4264 12.7539L18.8042 22.6948L25.1084 24.9844L28.7305 15.0435L22.4264 12.7539Z" fill="#B3A7CE"/>
<path d="M30.4106 9.95508L26.7268 20.0653L33.031 22.3548L36.7148 12.2446L30.4106 9.95508Z" fill="#B3A7CE"/>
<path d="M24.2434 7.73242L22.3706 12.8721L28.6902 15.1673L30.5629 10.0275L24.2434 7.73242Z" fill="#594791"/>
<path d="M38.4328 7.41406L34.8723 17.1857L40.5291 19.2401L44.0896 9.46843L38.4328 7.41406Z" fill="#B3A7CE"/>
<path d="M44.0747 9.46094L42.2412 14.4929L48.792 16.872L50.6255 11.84L44.0747 9.46094Z" fill="#B3A7CE"/>
<path d="M40.2439 2.26953L38.3711 7.40929L62.8942 16.3155L64.767 11.1758L40.2439 2.26953Z" fill="#594791"/>
<path d="M169.814 244.668L168.339 248.715L170.065 249.342L171.54 245.295L169.814 244.668Z" fill="#B3A7CE"/>
<path d="M167.941 245.562L166.466 249.61L168.192 250.237L169.666 246.189L167.941 245.562Z" fill="#B3A7CE"/>
<path d="M158.625 245.004L157.997 246.727L159.724 247.354L160.351 245.631L158.625 245.004Z" fill="#B3A7CE"/>
<path d="M144.354 224.666L142.369 230.113L143.679 230.589L145.664 225.141L144.354 224.666Z" fill="#B3A7CE"/>
<path d="M131.428 226.062L129.443 231.51L147.847 238.194L149.832 232.747L131.428 226.062Z" fill="#594791"/>
<path d="M145.788 224.457L145.389 225.55L151.016 227.593L151.414 226.5L145.788 224.457Z" fill="#B3A7CE"/>
<path d="M152.051 221.273L150.295 226.09L151.421 226.498L153.176 221.682L152.051 221.273Z" fill="#B3A7CE"/>
<path d="M153.15 221.672L152.78 222.688L158.637 224.815L159.007 223.799L153.15 221.672Z" fill="#B3A7CE"/>
<path d="M159.742 218.857L158.066 223.459L158.991 223.794L160.667 219.194L159.742 218.857Z" fill="#B3A7CE"/>
<path d="M160.849 218.684L160.405 219.899L166.91 222.262L167.353 221.046L160.849 218.684Z" fill="#B3A7CE"/>
<path d="M169.924 228.895L169.021 231.373L170.747 231.999L171.65 229.522L169.924 228.895Z" fill="#B3A7CE"/>
<path d="M105.767 200.432L104.213 204.694L110.888 207.118L112.441 202.855L105.767 200.432Z" fill="#594791"/>
<path d="M110.177 206.844L108.192 212.291L121.001 216.943L122.986 211.495L110.177 206.844Z" fill="#594791"/>
<path d="M55.3223 19.375L53.6738 23.8992L59.269 25.9312L60.9175 21.4071L55.3223 19.375Z" fill="#9D9D9C"/>
<path d="M46.5727 43.5098L44.7168 48.6034L50.4044 50.669L52.2604 45.5755L46.5727 43.5098Z" fill="#9D9D9C"/>
<path d="M39.33 46.5469L37.4741 51.6404L42.1137 53.3254L43.9696 48.2318L39.33 46.5469Z" fill="#9D9D9C"/>
<path d="M22.4426 52.1895L20.7549 56.8214L28.0301 59.4636L29.7178 54.8317L22.4426 52.1895Z" fill="#9D9D9C"/>
<path d="M15.8335 32.6133L12.3796 42.0925L17.4353 43.9287L20.8893 34.4494L15.8335 32.6133Z" fill="#9D9D9C"/>
<path d="M71.9709 47.332L70.5522 51.2253L82.7599 55.6588L84.1785 51.7656L71.9709 47.332Z" fill="#F6F6F6"/>
<path d="M83.9998 51.8867L82.2334 56.7341L87.1657 58.5254L88.9321 53.678L83.9998 51.8867Z" fill="#594791"/>
<path d="M80.1666 44.9551L78.3665 49.8948L84.1002 51.9772L85.9003 47.0375L80.1666 44.9551Z" fill="#594791"/>
<path d="M70.6389 50.8594L68.4636 56.8301L80.579 61.23L82.7544 55.2593L70.6389 50.8594Z" fill="#F6F6F6"/>
<path d="M57.6915 47.8652L50.5649 67.4239L57.4086 69.9097L64.5352 50.3507L57.6915 47.8652Z" fill="#EDEDED"/>
<path d="M76.2887 54.5664L73.3284 62.6915L84.2102 66.6436L87.1712 58.5185L76.2887 54.5664Z" fill="#F6F6F6"/>
<path d="M52.1269 45.8633L50.3047 50.8645L55.9307 52.9077L57.7529 47.9065L52.1269 45.8633Z" fill="#9C87B9"/>
<path d="M53.9829 40.8203L52.127 45.9139L57.8146 47.9795L59.6705 42.8859L53.9829 40.8203Z" fill="#9D9D9C"/>
<path d="M61.6445 54.2031L53.5479 76.4242L60.3915 78.9098L68.488 56.6886L61.6445 54.2031Z" fill="#EDEDED"/>
<path d="M51.8261 67.4297L49.9197 72.6615L56.7633 75.1471L58.6697 69.9153L51.8261 67.4297Z" fill="#EDEDED"/>
<path d="M50.4064 50.873L44.9731 65.7845L51.8168 68.2699L57.2501 53.3585L50.4064 50.873Z" fill="#EDEDED"/>
<path d="M42.8013 53.5L40.8726 58.7936L47.2847 61.1224L49.2134 55.8288L42.8013 53.5Z" fill="#EDEDED"/>
<path d="M64.4532 50.3867L62.8047 54.9109L68.4153 56.9486L70.0634 52.4244L64.4532 50.3867Z" fill="#DADADA"/>
<path d="M68.2995 56.7266L66.6511 61.2508L73.0479 63.5739L74.6961 59.0497L68.2995 56.7266Z" fill="#DADADA"/>
<path d="M76.849 71.0645L74.9761 76.2036L79.7393 77.9334L81.6115 72.7942L76.849 71.0645Z" fill="#DADADA"/>
<path d="M85.0672 85.1055L83.4189 89.6294L89.8152 91.9525L91.4641 87.4285L85.0672 85.1055Z" fill="#DADADA"/>
<path d="M93.5173 98.8516L91.6333 104.022L97.5979 106.189L99.4819 101.018L93.5173 98.8516Z" fill="#DADADA"/>
<path d="M101.973 113.182L100.089 118.352L105.546 120.334L107.43 115.163L101.973 113.182Z" fill="#DADADA"/>
<path d="M97.4448 105.973L95.5608 111.143L101.942 113.461L103.826 108.29L97.4448 105.973Z" fill="#DADADA"/>
<path d="M105.64 119.992L103.756 125.163L110.153 127.486L112.037 122.315L105.64 119.992Z" fill="#DADADA"/>
<path d="M110.082 127.332L108.198 132.502L114.04 134.624L115.924 129.453L110.082 127.332Z" fill="#DADADA"/>
<path d="M114.051 134.328L112.167 139.499L118.44 141.777L120.324 136.607L114.051 134.328Z" fill="#DADADA"/>
<path d="M118.491 141.363L116.607 146.533L122.88 148.812L124.764 143.642L118.491 141.363Z" fill="#DADADA"/>
<path d="M122.565 148.271L120.681 153.442L126.954 155.721L128.838 150.55L122.565 148.271Z" fill="#DADADA"/>
<path d="M127.066 155.453L125.182 160.624L130.685 162.622L132.569 157.452L127.066 155.453Z" fill="#DADADA"/>
<path d="M130.781 162.465L128.897 167.636L135.356 169.981L137.24 164.81L130.781 162.465Z" fill="#DADADA"/>
<path d="M135.412 169.609L132.889 176.534L144.572 180.777L147.095 173.852L135.412 169.609Z" fill="#DADADA"/>
<path d="M95.2486 78.4805L93.4602 83.3892L100.103 85.8021L101.892 80.8927L95.2486 78.4805Z" fill="#F6F6F6"/>
<path d="M92.9902 83.2188L89.8113 91.9436L102.866 96.685L106.046 87.9601L92.9902 83.2188Z" fill="#F6F6F6"/>
<path d="M102.331 86.6152L97.3684 100.234L101.099 101.589L106.061 87.9698L102.331 86.6152Z" fill="#F6F6F6"/>
<path d="M106.055 87.9453L104.188 93.0701L109.752 95.0906L111.619 89.9665L106.055 87.9453Z" fill="#594791"/>
<path d="M101.899 80.9023L100.105 85.8268L106.039 87.9818L107.833 83.0573L101.899 80.9023Z" fill="#594791"/>
<path d="M95.8913 92.1914L93.4746 98.8237L97.6213 100.33L100.038 93.6976L95.8913 92.1914Z" fill="#F6F6F6"/>
<path d="M104.137 93.0625L101.721 99.6948L107.331 101.732L109.748 95.1002L104.137 93.0625Z" fill="#F6F6F6"/>
<path d="M100.731 97.5566L98.3142 104.189L103.925 106.227L106.342 99.5943L100.731 97.5566Z" fill="#F6F6F6"/>
<path d="M100.806 97.3926L97.6501 106.056L111.476 111.077L114.633 102.414L100.806 97.3926Z" fill="#F6F6F6"/>
<path d="M105.199 104.559L102.042 113.222L115.159 117.986L118.316 109.322L105.199 104.559Z" fill="#F6F6F6"/>
<path d="M108.797 111.303L105.629 119.997L119.162 124.912L122.33 116.218L108.797 111.303Z" fill="#F6F6F6"/>
<path d="M113.2 119.059L110.171 127.369L123.736 132.294L126.764 123.985L113.2 119.059Z" fill="#F6F6F6"/>
<path d="M117.135 125.672L113.978 134.336L127.819 139.363L130.976 130.699L117.135 125.672Z" fill="#F6F6F6"/>
<path d="M121.703 132.844L118.585 141.4L132.642 146.505L135.76 137.949L121.703 132.844Z" fill="#F6F6F6"/>
<path d="M126.009 140.279L123.042 148.419L136.437 153.284L139.403 145.143L126.009 140.279Z" fill="#F6F6F6"/>
<path d="M129.975 147.449L127.025 155.544L141.083 160.649L144.032 152.555L129.975 147.449Z" fill="#F6F6F6"/>
<path d="M133.787 154.162L130.749 162.503L145.206 167.753L148.245 159.413L133.787 154.162Z" fill="#F6F6F6"/>
<path d="M138.55 161.129L135.449 169.638L149.938 174.9L153.039 166.391L138.55 161.129Z" fill="#F6F6F6"/>
<path d="M66.5991 60.1562L57.3137 85.6397L64.0803 88.0971L73.3655 62.6137L66.5991 60.1562Z" fill="#EDEDED"/>
<path d="M69.7112 68.5898L60.5552 93.7192L67.6609 96.2994L76.8175 71.1701L69.7112 68.5898Z" fill="#EDEDED"/>
<path d="M71.4225 74.9141L64.0996 95.0113L72.2844 97.9838L79.6072 77.8866L71.4225 74.9141Z" fill="#EDEDED"/>
<path d="M71.9867 85.3184L66.1775 101.261L83.9799 107.727L89.7892 91.784L71.9867 85.3184Z" fill="#EDEDED"/>
<path d="M76.5849 92.875L70.9612 108.31L87.8392 114.439L93.463 99.0046L76.5849 92.875Z" fill="#EDEDED"/>
<path d="M80.4148 99.9805L74.9814 114.892L92.1214 121.117L97.5547 106.205L80.4148 99.9805Z" fill="#EDEDED"/>
<path d="M85.0907 107.211L79.5955 122.292L96.4426 128.41L101.938 113.33L85.0907 107.211Z" fill="#EDEDED"/>
<path d="M88.8387 114.254L83.2087 129.704L99.917 135.772L105.547 120.322L88.8387 114.254Z" fill="#EDEDED"/>
<path d="M92.731 120.984L87.1018 136.434L104.504 142.754L110.134 127.305L92.731 120.984Z" fill="#EDEDED"/>
<path d="M97.1719 128.496L91.7385 143.407L108.617 149.537L114.049 134.626L97.1719 128.496Z" fill="#EDEDED"/>
<path d="M100.954 135.418L95.4026 150.652L112.897 157.006L118.449 141.771L100.954 135.418Z" fill="#EDEDED"/>
<path d="M105.557 142.514L100.073 157.564L116.935 163.688L122.419 148.638L105.557 142.514Z" fill="#EDEDED"/>
<path d="M109.571 149.41L103.919 164.922L121.29 171.23L126.942 155.719L109.571 149.41Z" fill="#EDEDED"/>
<path d="M113.908 156.523L108.245 172.065L125.03 178.162L130.693 162.619L113.908 156.523Z" fill="#EDEDED"/>
<path d="M117.493 163.406L111.511 179.826L130.993 186.901L136.976 170.482L117.493 163.406Z" fill="#EDEDED"/>
<path d="M38.9475 63.4414L37.2991 67.9656L43.6957 70.2885L45.3442 65.7645L38.9475 63.4414Z" fill="#DADADA"/>
<path d="M40.7017 58.5586L38.9243 63.4367L45.321 65.7598L47.0984 60.8817L40.7017 58.5586Z" fill="#C6C6C6"/>
<path d="M45.2501 65.7383L43.4727 70.6164L49.8694 72.9394L51.6468 68.0614L45.2501 65.7383Z" fill="#C6C6C6"/>
<path d="M61.86 94.2188L60.0825 99.0973L66.1555 101.303L67.933 96.4245L61.86 94.2188Z" fill="#C6C6C6"/>
<path d="M66.1158 101.219L64.3384 106.097L70.8889 108.476L72.6663 103.597L66.1158 101.219Z" fill="#C6C6C6"/>
<path d="M70.8988 108.297L69.3564 112.529L75.0908 114.612L76.6325 110.38L70.8988 108.297Z" fill="#C6C6C6"/>
<path d="M75.1108 114.52L73.1484 119.906L79.6533 122.268L81.6156 116.882L75.1108 114.52Z" fill="#C6C6C6"/>
<path d="M79.4224 122.129L77.3872 127.715L83.1676 129.814L85.2028 124.228L79.4224 122.129Z" fill="#C6C6C6"/>
<path d="M83.0259 129.645L81.2429 134.538L87.0227 136.637L88.8056 131.744L83.0259 129.645Z" fill="#C6C6C6"/>
<path d="M86.9924 136.352L85.2095 141.245L91.6827 143.596L93.4657 138.703L86.9924 136.352Z" fill="#C6C6C6"/>
<path d="M91.6856 143.217L89.7961 148.403L95.4989 150.474L97.3884 145.288L91.6856 143.217Z" fill="#C6C6C6"/>
<path d="M95.4754 150.363L93.5859 155.549L99.9671 157.867L101.857 152.681L95.4754 150.363Z" fill="#C6C6C6"/>
<path d="M99.7906 157.363L97.9011 162.549L104.051 164.783L105.941 159.596L99.7906 157.363Z" fill="#C6C6C6"/>
<path d="M104.031 164.611L102.142 169.797L108.292 172.031L110.182 166.845L104.031 164.611Z" fill="#C6C6C6"/>
<path d="M108.165 171.844L106.208 177.215L111.772 179.235L113.729 173.865L108.165 171.844Z" fill="#C6C6C6"/>
<path d="M111.654 179.066L109.983 183.652L117.613 186.423L119.284 181.837L111.654 179.066Z" fill="#C6C6C6"/>
<path d="M37.3467 67.7773L34.8628 74.5942L47.5482 79.2012L50.0321 72.3844L37.3467 67.7773Z" fill="#DADADA"/>
<path d="M36.8268 67.7773L32.7842 78.8724L35.9594 80.0253L40.002 68.9308L36.8268 67.7773Z" fill="#DADADA"/>
<path d="M33.3184 61.3926L31.541 66.2707L37.3828 68.3924L39.1603 63.5142L33.3184 61.3926Z" fill="#B2B2B2"/>
<path d="M31.2638 66.1641L29.335 71.458L34.8069 73.4449L36.7356 68.1513L31.2638 66.1641Z" fill="#9D9D9C"/>
<path d="M49.9382 94.9453L47.2244 102.393L63.6553 108.361L66.3692 100.913L49.9382 94.9453Z" fill="#DADADA"/>
<path d="M58.4305 103.938L54.2532 115.402L66.6612 119.909L70.8382 108.444L58.4305 103.938Z" fill="#DADADA"/>
<path d="M52.4605 108.031L51.3391 111.109L55.7474 112.71L56.8688 109.632L52.4605 108.031Z" fill="#DADADA"/>
<path d="M63.7139 110.48L59.3403 122.484L68.6811 125.876L73.0548 113.873L63.7139 110.48Z" fill="#DADADA"/>
<path d="M69.7275 112.682L63.6885 129.255L69.0367 131.197L75.0756 114.624L69.7275 112.682Z" fill="#DADADA"/>
<path d="M73.1338 119.836L67.2856 135.886L73.5895 138.176L79.438 122.125L73.1338 119.836Z" fill="#DADADA"/>
<path d="M63.7027 129.252L61.8691 134.284L67.8804 136.467L69.7139 131.435L63.7027 129.252Z" fill="#594791"/>
<path d="M77.2503 127.547L71.8396 142.397L77.6352 144.501L83.0458 129.652L77.2503 127.547Z" fill="#DADADA"/>
<path d="M67.9859 136.148L66.1523 141.181L72.1635 143.364L73.9973 138.332L67.9859 136.148Z" fill="#594791"/>
<path d="M81.2458 134.514L75.7788 149.518L81.5744 151.623L87.0414 136.619L81.2458 134.514Z" fill="#DADADA"/>
<path d="M72.43 142.594L70.5962 147.626L76.6076 149.809L78.4414 144.777L72.43 142.594Z" fill="#594791"/>
<path d="M85.323 141.262L79.458 157.358L85.8082 159.664L91.6732 143.568L85.323 141.262Z" fill="#DADADA"/>
<path d="M76.6075 149.803L74.4204 155.804L80.4318 157.987L82.6189 151.986L76.6075 149.803Z" fill="#594791"/>
<path d="M89.2271 148.084L83.5188 163.75L89.869 166.056L95.5773 150.391L89.2271 148.084Z" fill="#DADADA"/>
<path d="M80.5144 157.754L78.7871 162.493L84.7985 164.676L86.5257 159.937L80.5144 157.754Z" fill="#594791"/>
<path d="M93.6492 155.441L87.9189 171.168L93.9606 173.363L99.6915 157.636L93.6492 155.441Z" fill="#DADADA"/>
<path d="M84.9663 164.217L83.0713 169.418L89.082 171.601L90.9776 166.4L84.9663 164.217Z" fill="#594791"/>
<path d="M97.8914 162.379L92.2505 177.86L98.3849 180.088L104.026 164.607L97.8914 162.379Z" fill="#DADADA"/>
<path d="M89.0615 171.586L87.1665 176.787L93.1779 178.97L95.0729 173.769L89.0615 171.586Z" fill="#594791"/>
<path d="M101.808 169.523L96.1113 185.158L102.477 187.47L108.174 171.835L101.808 169.523Z" fill="#DADADA"/>
<path d="M93.4459 178.281L91.5503 183.483L97.5617 185.666L99.4573 180.464L93.4459 178.281Z" fill="#594791"/>
<path d="M106.201 177.09L100.527 192.663L105.968 194.639L111.642 179.067L106.201 177.09Z" fill="#DADADA"/>
<path d="M97.541 185.648L95.646 190.849L101.657 193.032L103.552 187.832L97.541 185.648Z" fill="#594791"/>
<path d="M108.201 183.012L104.198 193.999L113.6 197.413L117.604 186.427L108.201 183.012Z" fill="#DADADA"/>
<path d="M145.122 180.506L142.083 188.847L162.244 196.168L165.283 187.828L145.122 180.506Z" fill="#F5EDF5"/>
<path d="M148.721 188.555L146.057 195.865L160.438 201.087L163.102 193.778L148.721 188.555Z" fill="#F5EDF5"/>
<path d="M152.046 198.041L150.274 202.904L165.411 208.401L167.182 203.538L152.046 198.041Z" fill="#F5EDF5"/>
<path d="M148.203 170.801L144.502 180.957L152.671 183.924L156.371 173.768L148.203 170.801Z" fill="#F6F6F6"/>
<path d="M148.754 176.09L146.719 181.676L159.559 186.339L161.594 180.753L148.754 176.09Z" fill="#9C87B9"/>
<path d="M164.426 210.352L162.671 215.168L168.697 217.357L170.453 212.54L164.426 210.352Z" fill="#D2BAD7"/>
<path d="M160.691 211.871L158.521 217.826L167.384 221.045L169.554 215.09L160.691 211.871Z" fill="#D2BAD7"/>
<path d="M161.558 198.004L160.262 201.559L166.998 204.005L168.294 200.45L161.558 198.004Z" fill="#D2BAD7"/>
<path d="M152.817 214.965L150.698 220.782L159.005 223.799L161.125 217.983L152.817 214.965Z" fill="#D2BAD7"/>
<path d="M133.847 220.133L131.649 226.165L143.58 230.498L145.778 224.466L133.847 220.133Z" fill="#D2BAD7"/>
<path d="M123.233 210.836L121.035 216.868L133.566 221.42L135.764 215.387L123.233 210.836Z" fill="#D2BAD7"/>
<path d="M109.556 190.045L105.727 200.555L112.308 202.945L116.138 192.435L109.556 190.045Z" fill="#9C87B9"/>
<path d="M135.776 215.328L134.015 220.16L143.155 223.48L144.916 218.648L135.776 215.328Z" fill="#D9C7DD"/>
<path d="M124.996 206.006L123.235 210.838L133.501 214.566L135.262 209.734L124.996 206.006Z" fill="#D9C7DD"/>
<path d="M114.55 196.359L112.649 201.576L128.71 207.409L130.611 202.193L114.55 196.359Z" fill="#D9C7DD"/>
<path d="M113.051 200.504L110.674 207.029L122.989 211.502L125.367 204.977L113.051 200.504Z" fill="#D2BAD7"/>
<path d="M116.01 192.375L114.558 196.361L124.978 200.144L126.43 196.159L116.01 192.375Z" fill="#D9C7DD"/>
<path d="M125.414 184.871L124.102 188.472L128.202 189.961L129.514 186.36L125.414 184.871Z" fill="#D9C7DD"/>
<path d="M133.271 182.277L132.026 185.694L135.772 187.054L137.016 183.637L133.271 182.277Z" fill="#D9C7DD"/>
<path d="M130.187 184.434L126.952 193.312L144.631 199.733L147.866 190.854L130.187 184.434Z" fill="#E6D9EA"/>
<path d="M126.842 179.951L125.076 184.799L131.488 187.127L133.254 182.28L126.842 179.951Z" fill="#9C87B9"/>
<path d="M137.006 183.641L135.683 187.272L141.879 189.523L143.202 185.891L137.006 183.641Z" fill="#E6D9EA"/>
<path d="M134.544 177.145L132.721 182.146L145.715 186.865L147.537 181.864L134.544 177.145Z" fill="#9C87B9"/>
<path d="M132.748 196.336L128.717 207.4L152.346 215.982L156.377 204.917L132.748 196.336Z" fill="#E6D9EA"/>
<path d="M154.621 209.668L152.653 215.069L158.726 217.275L160.694 211.874L154.621 209.668Z" fill="#D9C7DD"/>
<path d="M155.934 204.73L154.163 209.593L163.704 213.058L165.476 208.195L155.934 204.73Z" fill="#F5EDF5"/>
<path d="M135.406 209.328L133.494 214.576L144.931 218.729L146.842 213.482L135.406 209.328Z" fill="#E6D9EA"/>
<path d="M145.073 218.211L143.15 223.489L150.348 226.103L152.271 220.825L145.073 218.211Z" fill="#D2BAD7"/>
<path d="M147.162 212.5L145.043 218.317L150.869 220.433L152.989 214.616L147.162 212.5Z" fill="#D9C7DD"/>
<path d="M128.816 189.609L124.975 200.15L148.188 208.581L152.029 198.04L128.816 189.609Z" fill="#E6D9EA"/>
<path d="M124.427 187.609L121.893 194.565L128.151 196.838L130.685 189.882L124.427 187.609Z" fill="#E6D9EA"/>
<path d="M22.7647 29.541L15.4475 49.623L35.5623 56.9282L42.8795 36.8463L22.7647 29.541Z" fill="#DADADA"/>
<path d="M17.6084 45.3398L15.9207 49.9718L23.1959 52.614L24.8836 47.9821L17.6084 45.3398Z" fill="#9D9D9C"/>
<path d="M12.5091 42.1602L10.2383 48.3925L15.7718 50.4021L18.0426 44.1698L12.5091 42.1602Z" fill="#594791"/>
<path d="M36.3199 51.1641L32.6753 61.1666L39.1644 63.5233L42.809 53.5208L36.3199 51.1641Z" fill="#9C87B9"/>
<path d="M31.6742 49.4609L28.0352 59.448L32.6746 61.133L36.3136 51.1459L31.6742 49.4609Z" fill="#9D9D9C"/>
<path d="M31.3488 26.9336L25.938 41.7835L44.7427 48.6129L50.1535 33.7631L31.3488 26.9336Z" fill="#DADADA"/>
<path d="M38.6454 24.373L33.2346 39.2229L52.0393 46.0523L57.4501 31.2025L38.6454 24.373Z" fill="#DADADA"/>
<path d="M47.102 21.5L41.6016 36.5961L59.5584 43.1176L65.059 28.0215L47.102 21.5Z" fill="#DADADA"/>
<path d="M60.9171 39.2188L59.4873 43.1428L71.4485 47.4868L72.8781 43.5627L60.9171 39.2188Z" fill="#9D9D9C"/>
<path d="M59.5582 42.9375L57.7358 47.9388L70.159 52.4507L71.9818 47.4495L59.5582 42.9375Z" fill="#9C87B9"/>
<path d="M53.4464 23.8262L49.3645 35.029L67.4909 41.6121L71.5729 30.4093L53.4464 23.8262Z" fill="#DADADA"/>
<path d="M69.1797 35.6543L67.0718 41.4404L73.3298 43.7131L75.4379 37.927L69.1797 35.6543Z" fill="#DADADA"/>
<path d="M73.3028 42.3984L71.48 47.3997L78.3705 49.9019L80.1926 44.9007L73.3028 42.3984Z" fill="#9C87B9"/>
<path d="M60.9187 21.4102L58.7263 27.427L64.9227 29.6774L67.115 23.6605L60.9187 21.4102Z" fill="#DADADA"/>
<path d="M47.062 102.025L45.0547 107.535L50.9119 109.662L52.9192 104.153L47.062 102.025Z" fill="#594791"/>
<path d="M43.1284 95.4453L41.1211 100.954L46.9783 103.082L48.9857 97.5729L43.1284 95.4453Z" fill="#594791"/>
<path d="M39.3757 89.1562L37.3684 94.6651L43.2256 96.7927L45.2329 91.2838L39.3757 89.1562Z" fill="#594791"/>
<path d="M35.804 82.3789L33.7966 87.8885L39.3147 89.8925L41.3221 84.383L35.804 82.3789Z" fill="#594791"/>
<path d="M49.0443 108.715L47.2612 113.608L54.0278 116.066L55.8108 111.172L49.0443 108.715Z" fill="#594791"/>
<path d="M98.1238 73.9668L96.3298 78.8906L102.264 81.0463L104.058 76.1218L98.1238 73.9668Z" fill="#594791"/>
<path d="M94.257 67.2148L92.4624 72.139L98.3968 74.2947L100.191 69.3702L94.257 67.2148Z" fill="#594791"/>
<path d="M91.2222 61.5059L89.6187 65.907L94.5509 67.6983L96.1545 63.2972L91.2222 61.5059Z" fill="#594791"/>
<path d="M87.5994 57.3711L86.231 61.1259L91.1639 62.9172L92.5317 59.1624L87.5994 57.3711Z" fill="#594791"/>
<path d="M73.355 62.625L71.0112 69.0576L77.0226 71.2408L79.3664 64.8082L73.355 62.625Z" fill="#DADADA"/>
<path d="M53.6821 102.043L50.9683 109.491L56.6713 111.563L59.3852 104.114L53.6821 102.043Z" fill="#DADADA"/>
<path d="M46.2532 88.5254L43.6628 95.6351L59.2768 101.305L61.8673 94.1961L46.2532 88.5254Z" fill="#DADADA"/>
<path d="M56.3823 85.3066L54.1619 91.4005L60.5586 93.7236L62.7789 87.6297L56.3823 85.3066Z" fill="#C6C6C6"/>
<path d="M53.529 76.4082L50.9722 83.4253L57.3688 85.7483L59.9257 78.7312L53.529 76.4082Z" fill="#C6C6C6"/>
<path d="M49.8437 72.2363L47.9878 77.3302L52.6581 79.0264L54.5141 73.9325L49.8437 72.2363Z" fill="#C6C6C6"/>
<path d="M38.195 73.7734L35.0942 82.283L49.5677 87.5394L52.6684 79.0299L38.195 73.7734Z" fill="#DADADA"/>
<path d="M31.9821 78.5352L30.4346 82.7827L35.1512 84.4953L36.6987 80.2484L31.9821 78.5352Z" fill="#594791"/>
<path d="M42.7823 80.3633L39.519 89.3193L53.1139 94.2568L56.3772 85.3008L42.7823 80.3633Z" fill="#DADADA"/>
<path d="M79.7137 77.6094L77.9363 82.4872L85.2577 85.1463L87.0351 80.2685L79.7137 77.6094Z" fill="#DADADA"/>
<path d="M73.3574 80.8535L69.4946 91.4563L81.1937 95.7052L85.0564 85.1024L73.3574 80.8535Z" fill="#EDEDED"/>
<path d="M81.3653 59.3438L77.031 71.2392L86.433 74.6535L90.7673 62.7585L81.3653 59.3438Z" fill="#F6F6F6"/>
<path d="M84.6185 64.0996L79.6958 77.6105L89.2057 81.0645L94.129 67.5535L84.6185 64.0996Z" fill="#F6F6F6"/>
<path d="M90.342 71.1465L85.2393 85.1498L93.0233 87.9769L98.1253 73.9729L90.342 71.1465Z" fill="#F6F6F6"/>
<path d="M89.7028 91.6699L87.7734 96.9641L93.4769 99.0347L95.4055 93.7412L89.7028 91.6699Z" fill="#DADADA"/>
<path d="M46.1091 118.873L44.1018 124.382L49.9589 126.509L51.9663 121L46.1091 118.873Z" fill="#594791"/>
<path d="M52.5444 118.867L50.5371 124.377L56.3943 126.504L58.4016 120.995L52.5444 118.867Z" fill="#594791"/>
<path d="M59.444 117.035L57.4368 122.544L63.2939 124.672L65.3013 119.163L59.444 117.035Z" fill="#594791"/>
<path d="M68.093 101.984L66.5342 106.262L70.0638 107.544L71.6226 103.266L68.093 101.984Z" fill="#594791"/>
<path d="M64.3742 96.9785L62.8154 101.257L67.7478 103.048L69.3068 98.77L64.3742 96.9785Z" fill="#594791"/>
<path d="M60.5505 91.3379L58.9917 95.6156L64.3865 97.5751L65.9453 93.2967L60.5505 91.3379Z" fill="#594791"/>
<path d="M55.2229 87.1016L53.6641 91.3793L59.7371 93.585L61.2958 89.3073L55.2229 87.1016Z" fill="#594791"/>
<path d="M49.0577 88.8047L47.499 93.0831L52.4314 94.8746L53.9901 90.5962L49.0577 88.8047Z" fill="#594791"/>
<path d="M42.8738 90.1387L40.8945 95.5707L46.0581 97.4459L48.0374 92.0138L42.8738 90.1387Z" fill="#594791"/>
<path d="M36.9653 93.0117L33.2534 103.199L38.1858 104.99L41.8977 94.8032L36.9653 93.0117Z" fill="#594791"/>
<path d="M53.6673 91.377L49.6975 102.272L55.7705 104.478L59.7404 93.5827L53.6673 91.377Z" fill="white"/>
<path d="M58.2064 95.3379L54.7075 104.941L60.6726 107.107L64.1714 97.5045L58.2064 95.3379Z" fill="white"/>
<path d="M59.669 100.109L55.5254 111.481L63.6021 114.414L67.7458 103.043L59.669 100.109Z" fill="white"/>
<path d="M60.589 104.105L56.2996 115.878L64.7617 118.95L69.0511 107.179L60.589 104.105Z" fill="white"/>
<path d="M65.4551 113.23L63.4478 118.739L68.0256 120.402L70.0327 114.893L65.4551 113.23Z" fill="#594791"/>
<path d="M69.1845 106.779L66.6445 113.75L70.8987 115.296L73.4391 108.325L69.1845 106.779Z" fill="#594791"/>
<path d="M54.7335 110.564L51.8066 118.597L58.0492 120.864L60.976 112.831L54.7335 110.564Z" fill="white"/>
<path d="M48.8773 109.316L45.4346 118.765L51.7542 121.06L55.1969 111.611L48.8773 109.316Z" fill="white"/>
<path d="M46.1826 92.5938L38.2935 114.245L47.1101 117.447L54.9992 95.796L46.1826 92.5938Z" fill="white"/>
<path d="M39.7515 114.773L38.2656 118.852L45.3713 121.432L46.8572 117.354L39.7515 114.773Z" fill="#594791"/>
<path d="M36.9135 104.066L34.5586 110.529L39.0748 112.17L41.4298 105.706L36.9135 104.066Z" fill="#594791"/>
<path d="M36.9156 110.91L35.4297 114.988L39.9459 116.628L41.4318 112.551L36.9156 110.91Z" fill="#594791"/>
<path d="M52.2786 103.227L49.9236 109.689L54.4398 111.33L56.7947 104.866L52.2786 103.227Z" fill="#594791"/>
<path d="M51.0384 103.613L49.2273 108.584L55.7164 110.941L57.5275 105.971L51.0384 103.613Z" fill="#594791"/>
<path d="M41.539 95.7852L38.3374 104.572L42.0212 105.91L45.2229 97.1233L41.539 95.7852Z" fill="white"/>
<path d="M78.2311 122.883L77.02 126.207L82.3997 128.161L83.6108 124.836L78.2311 122.883Z" fill="#594791"/>
<path d="M83.8575 123.082L82.7529 126.114L87.0226 127.664L88.1272 124.633L83.8575 123.082Z" fill="#594791"/>
<path d="M88.8929 122.258L87.6482 125.674L91.0697 126.917L92.3145 123.501L88.8929 122.258Z" fill="#594791"/>
<path d="M93.8595 119.043L91.7405 124.86L94.5613 125.884L96.6803 120.068L93.8595 119.043Z" fill="#594791"/>
<path d="M97.662 116.184L95.543 122L98.1321 122.941L100.252 117.125L97.662 116.184Z" fill="#594791"/>
<path d="M101.579 112.551L99.4592 118.368L102.048 119.308L104.168 113.491L101.579 112.551Z" fill="#594791"/>
<path d="M84.3126 86.5977L82.3049 92.1065L88.1624 94.2341L90.1694 88.7245L84.3126 86.5977Z" fill="#594791"/>
<path d="M90.7472 86.6074L88.7402 92.117L94.5977 94.2438L96.6047 88.735L90.7472 86.6074Z" fill="#594791"/>
<path d="M97.6571 84.7969L95.6501 90.3057L101.507 92.4333L103.515 86.9237L97.6571 84.7969Z" fill="#594791"/>
<path d="M106.291 69.7383L104.732 74.0167L108.261 75.2986L109.82 71.0202L106.291 69.7383Z" fill="#594791"/>
<path d="M102.572 64.7344L101.013 69.0123L105.945 70.8038L107.504 66.5257L102.572 64.7344Z" fill="#594791"/>
<path d="M98.7637 59.0977L97.2048 63.3756L102.6 65.3349L104.159 61.0569L98.7637 59.0977Z" fill="#594791"/>
<path d="M93.426 54.8398L91.8672 59.1178L97.9404 61.3234L99.4993 57.0454L93.426 54.8398Z" fill="#594791"/>
<path d="M87.2708 56.5508L85.7119 60.8288L90.6442 62.6201L92.2031 58.3421L87.2708 56.5508Z" fill="#594791"/>
<path d="M81.0923 57.8828L79.1128 63.3149L84.2767 65.1902L86.2562 59.7581L81.0923 57.8828Z" fill="#594791"/>
<path d="M75.1786 60.7734L71.4663 70.9606L76.3986 72.7521L80.1108 62.5648L75.1786 60.7734Z" fill="#594791"/>
<path d="M91.8807 59.1367L87.9106 70.0318L93.9839 72.2375L97.9532 61.3422L91.8807 59.1367Z" fill="white"/>
<path d="M96.4255 63.082L92.9263 72.6844L98.8916 74.851L102.39 65.2484L96.4255 63.082Z" fill="white"/>
<path d="M97.8668 67.8652L93.7229 79.2374L101.8 82.1708L105.944 70.7985L97.8668 67.8652Z" fill="white"/>
<path d="M98.7925 71.8457L94.5029 83.6179L102.965 86.6905L107.254 74.9184L98.7925 71.8457Z" fill="white"/>
<path d="M103.684 80.9922L101.677 86.5011L106.255 88.1636L108.263 82.6547L103.684 80.9922Z" fill="#594791"/>
<path d="M107.382 74.5352L104.842 81.5056L109.096 83.0508L111.637 76.0797L107.382 74.5352Z" fill="#594791"/>
<path d="M92.953 78.2891L90.0264 86.3212L96.2687 88.5887L99.196 80.5558L92.953 78.2891Z" fill="white"/>
<path d="M87.0805 77.0547L83.6377 86.5031L89.9577 88.798L93.4005 79.3496L87.0805 77.0547Z" fill="white"/>
<path d="M84.3958 60.3555L76.5066 82.0071L85.3237 85.2087L93.2121 63.5575L84.3958 60.3555Z" fill="white"/>
<path d="M77.9548 82.5156L76.4688 86.5938L83.5744 89.1747L85.0604 85.0965L77.9548 82.5156Z" fill="#594791"/>
<path d="M75.1114 71.8203L72.7566 78.2839L77.2723 79.9238L79.6271 73.4609L75.1114 71.8203Z" fill="#594791"/>
<path d="M75.1134 78.6641L73.6274 82.7422L78.1439 84.3828L79.6292 80.3046L75.1134 78.6641Z" fill="#594791"/>
<path d="M90.5137 70.9727L88.1589 77.4356L92.6747 79.0761L95.0302 72.6126L90.5137 70.9727Z" fill="#594791"/>
<path d="M89.2525 71.3672L87.4414 76.3376L93.9305 78.6943L95.7416 73.7238L89.2525 71.3672Z" fill="#594791"/>
<path d="M79.7362 63.541L76.5347 72.3281L80.2188 73.6655L83.4203 64.8789L79.7362 63.541Z" fill="white"/>
<path d="M298.085 120.251H283.118C282.845 118.319 282.287 116.603 281.443 115.102C280.601 113.579 279.519 112.283 278.197 111.214C276.876 110.147 275.35 109.328 273.618 108.76C271.91 108.191 270.053 107.907 268.049 107.907C264.426 107.907 261.271 108.805 258.583 110.601C255.895 112.374 253.811 114.965 252.33 118.376C250.849 121.762 250.109 125.877 250.109 130.719C250.109 135.697 250.849 139.88 252.33 143.267C253.833 146.654 255.929 149.212 258.617 150.939C261.305 152.667 264.415 153.531 267.946 153.531C269.928 153.531 271.762 153.27 273.448 152.746C275.156 152.224 276.671 151.462 277.992 150.462C279.313 149.439 280.407 148.2 281.273 146.745C282.161 145.29 282.776 143.631 283.118 141.767L298.085 141.835C297.698 145.041 296.73 148.132 295.18 151.11C293.654 154.065 291.593 156.713 288.996 159.055C286.421 161.374 283.346 163.215 279.769 164.579C276.216 165.92 272.195 166.59 267.707 166.59C261.465 166.59 255.884 165.181 250.963 162.362C246.065 159.543 242.192 155.463 239.344 150.121C236.52 144.779 235.108 138.312 235.108 130.719C235.108 123.104 236.543 116.625 239.413 111.283C242.284 105.941 246.179 101.872 251.1 99.076C256.02 96.2571 261.556 94.8477 267.707 94.8477C271.762 94.8477 275.521 95.4156 278.983 96.5527C282.469 97.6892 285.556 99.3483 288.244 101.531C290.932 103.691 293.119 106.339 294.804 109.476C296.513 112.613 297.607 116.205 298.085 120.251ZM330.212 166.658C324.904 166.658 320.314 165.533 316.441 163.283C312.591 161.01 309.618 157.85 307.523 153.804C305.426 149.735 304.379 145.017 304.379 139.652C304.379 134.242 305.426 129.514 307.523 125.468C309.618 121.399 312.591 118.239 316.441 115.989C320.314 113.715 324.904 112.579 330.212 112.579C335.52 112.579 340.099 113.715 343.949 115.989C347.822 118.239 350.806 121.399 352.902 125.468C354.998 129.514 356.045 134.242 356.045 139.652C356.045 145.017 354.998 149.735 352.902 153.804C350.806 157.85 347.822 161.01 343.949 163.283C340.099 165.533 335.52 166.658 330.212 166.658ZM330.28 155.406C332.695 155.406 334.711 154.724 336.329 153.36C337.946 151.973 339.165 150.087 339.985 147.7C340.828 145.313 341.249 142.597 341.249 139.55C341.249 136.504 340.828 133.788 339.985 131.401C339.165 129.014 337.946 127.127 336.329 125.74C334.711 124.354 332.695 123.661 330.28 123.661C327.843 123.661 325.793 124.354 324.13 125.74C322.489 127.127 321.248 129.014 320.405 131.401C319.585 133.788 319.175 136.504 319.175 139.55C319.175 142.597 319.585 145.313 320.405 147.7C321.248 150.087 322.489 151.973 324.13 153.36C325.793 154.724 327.843 155.406 330.28 155.406ZM363.587 185.276V113.26H377.938V122.058H378.588C379.226 120.648 380.148 119.216 381.356 117.762C382.586 116.284 384.181 115.057 386.139 114.079C388.122 113.079 390.582 112.579 393.521 112.579C397.348 112.579 400.879 113.579 404.114 115.579C407.348 117.557 409.934 120.546 411.87 124.547C413.806 128.526 414.775 133.515 414.775 139.517C414.775 145.359 413.829 150.292 411.939 154.315C410.071 158.316 407.519 161.35 404.284 163.419C401.072 165.465 397.473 166.488 393.486 166.488C390.661 166.488 388.258 166.022 386.276 165.09C384.317 164.158 382.711 162.988 381.458 161.578C380.205 160.146 379.248 158.702 378.588 157.248H378.143V185.276H363.587ZM377.836 139.448C377.836 142.563 378.269 145.279 379.134 147.597C380 149.916 381.253 151.724 382.893 153.019C384.533 154.292 386.526 154.929 388.873 154.929C391.242 154.929 393.247 154.281 394.887 152.985C396.528 151.667 397.769 149.848 398.612 147.53C399.478 145.188 399.911 142.494 399.911 139.448C399.911 136.425 399.489 133.765 398.646 131.469C397.803 129.173 396.561 127.377 394.921 126.082C393.281 124.786 391.265 124.138 388.873 124.138C386.504 124.138 384.499 124.763 382.859 126.013C381.242 127.264 380 129.037 379.134 131.333C378.269 133.628 377.836 136.334 377.836 139.448ZM429.851 185.276C428.005 185.276 426.274 185.129 424.657 184.833C423.062 184.56 421.74 184.208 420.693 183.776L423.973 172.933C425.681 173.456 427.219 173.74 428.586 173.785C429.976 173.83 431.172 173.512 432.174 172.83C433.199 172.149 434.031 170.989 434.669 169.352L435.523 167.136L416.695 113.26H432.004L442.869 151.724H443.417L454.386 113.26H469.797L449.396 171.296C448.417 174.115 447.084 176.57 445.398 178.661C443.736 180.775 441.628 182.401 439.077 183.537C436.525 184.697 433.45 185.276 429.851 185.276ZM477.987 165.636V95.8024H502.453C507.329 95.8024 511.349 96.6432 514.516 98.3257C517.683 99.9848 520.04 102.224 521.589 105.043C523.139 107.839 523.913 110.942 523.913 114.352C523.913 117.352 523.378 119.83 522.307 121.785C521.259 123.74 519.87 125.286 518.138 126.423C516.43 127.559 514.573 128.4 512.568 128.946V129.628C514.709 129.764 516.863 130.515 519.026 131.878C521.191 133.242 523.002 135.197 524.46 137.743C525.917 140.29 526.647 143.403 526.647 147.086C526.647 150.587 525.849 153.735 524.255 156.532C522.66 159.328 520.142 161.544 516.703 163.18C513.263 164.817 508.786 165.636 503.273 165.636H477.987ZM486.461 158.134H503.273C508.809 158.134 512.739 157.066 515.062 154.929C517.409 152.77 518.582 150.155 518.582 147.086C518.582 144.722 517.979 142.54 516.771 140.539C515.564 138.516 513.844 136.902 511.611 135.697C509.379 134.47 506.736 133.856 503.684 133.856H486.461V158.134ZM486.461 126.491H502.18C504.731 126.491 507.032 125.991 509.083 124.991C511.156 123.99 512.796 122.581 514.003 120.762C515.234 118.943 515.849 116.807 515.849 114.352C515.849 111.283 514.778 108.68 512.636 106.543C510.495 104.384 507.1 103.304 502.453 103.304H486.461V126.491ZM570.631 144.222V113.26H578.695V165.636H570.631V156.77H570.084C568.854 159.43 566.941 161.692 564.343 163.555C561.747 165.397 558.466 166.317 554.502 166.317C551.222 166.317 548.306 165.601 545.754 164.169C543.203 162.715 541.198 160.532 539.74 157.623C538.282 154.69 537.553 150.996 537.553 146.541V113.26H545.618V145.995C545.618 149.814 546.688 152.86 548.83 155.134C550.994 157.407 553.751 158.543 557.099 158.543C559.104 158.543 561.143 158.031 563.216 157.009C565.312 155.986 567.066 154.417 568.478 152.303C569.913 150.189 570.631 147.495 570.631 144.222ZM611.361 166.727C606.987 166.727 603.126 165.624 599.776 163.419C596.428 161.191 593.808 158.054 591.918 154.008C590.027 149.939 589.081 145.131 589.081 139.585C589.081 134.083 590.027 129.31 591.918 125.263C593.808 121.217 596.439 118.091 599.811 115.886C603.182 113.681 607.078 112.579 611.497 112.579C614.915 112.579 617.614 113.147 619.596 114.284C621.601 115.398 623.127 116.67 624.175 118.103C625.245 119.512 626.077 120.671 626.67 121.581H627.353V95.8024H635.417V165.636H627.626V157.588H626.67C626.077 158.543 625.234 159.748 624.141 161.203C623.047 162.635 621.487 163.92 619.459 165.056C617.432 166.17 614.732 166.727 611.361 166.727ZM612.454 159.498C615.689 159.498 618.423 158.657 620.655 156.975C622.888 155.27 624.585 152.917 625.746 149.916C626.909 146.893 627.49 143.403 627.49 139.448C627.49 135.538 626.92 132.117 625.781 129.185C624.642 126.229 622.956 123.933 620.723 122.297C618.491 120.638 615.735 119.808 612.454 119.808C609.037 119.808 606.189 120.683 603.911 122.433C601.656 124.161 599.959 126.513 598.82 129.491C597.703 132.447 597.145 135.766 597.145 139.448C597.145 143.176 597.715 146.563 598.854 149.61C600.016 152.633 601.724 155.043 603.979 156.838C606.258 158.612 609.083 159.498 612.454 159.498ZM669.201 166.727C664.828 166.727 660.967 165.624 657.618 163.419C654.269 161.191 651.649 158.054 649.758 154.008C647.867 149.939 646.922 145.131 646.922 139.585C646.922 134.083 647.867 129.31 649.758 125.263C651.649 121.217 654.28 118.091 657.652 115.886C661.024 113.681 664.919 112.579 669.338 112.579C672.756 112.579 675.455 113.147 677.437 114.284C679.441 115.398 680.968 116.67 682.016 118.103C683.086 119.512 683.918 120.671 684.51 121.581H685.194V95.8024H693.261V165.636H685.467V157.588H684.51C683.918 158.543 683.075 159.748 681.982 161.203C680.888 162.635 679.328 163.92 677.3 165.056C675.273 166.17 672.574 166.727 669.201 166.727ZM670.295 159.498C673.53 159.498 676.264 158.657 678.496 156.975C680.729 155.27 682.426 152.917 683.588 149.916C684.75 146.893 685.33 143.403 685.33 139.448C685.33 135.538 684.761 132.117 683.622 129.185C682.483 126.229 680.797 123.933 678.564 122.297C676.332 120.638 673.576 119.808 670.295 119.808C666.878 119.808 664.031 120.683 661.752 122.433C659.497 124.161 657.8 126.513 656.66 129.491C655.544 132.447 654.986 135.766 654.986 139.448C654.986 143.176 655.556 146.563 656.695 149.61C657.857 152.633 659.565 155.043 661.821 156.838C664.099 158.612 666.924 159.498 670.295 159.498ZM712.417 185.276C711.049 185.276 709.832 185.163 708.76 184.935C707.688 184.731 706.952 184.526 706.54 184.321L708.588 177.229C710.547 177.73 712.279 177.911 713.784 177.775C715.29 177.638 716.623 176.968 717.785 175.763C718.967 174.581 720.046 172.66 721.029 170.001L722.534 165.909L703.124 113.26H711.874L726.356 154.997H726.905L741.394 113.26H750.144L727.861 173.273C726.857 175.978 725.62 178.218 724.136 179.991C722.658 181.787 720.94 183.117 718.981 183.98C717.042 184.845 714.857 185.276 712.417 185.276Z" fill="#111111"/>
</svg>
